<mxfile host="65bd71144e">
    <diagram id="QQOt3Y3QuQOo6aFTTKMI" name="Page-1">
        <mxGraphModel dx="1197" dy="827" grid="1" gridSize="10" guides="1" tooltips="1" connect="1" arrows="1" fold="1" page="1" pageScale="1" pageWidth="850" pageHeight="1100" background="#F1FAEE" math="0" shadow="0">
            <root>
                <mxCell id="0"/>
                <mxCell id="1" parent="0"/>
                <mxCell id="43" value="" style="group;rounded=0;" parent="1" vertex="1" connectable="0">
                    <mxGeometry x="490" y="130" width="120" height="210" as="geometry"/>
                </mxCell>
                <mxCell id="27" value="" style="rounded=0;whiteSpace=wrap;html=1;strokeColor=#36393d;fontSize=16;fillColor=#ffcc99;" parent="43" vertex="1">
                    <mxGeometry width="120" height="210" as="geometry"/>
                </mxCell>
                <mxCell id="29" value="pid" style="rounded=0;whiteSpace=wrap;html=1;strokeColor=#457B9D;fontSize=16;fontColor=#000000;fillColor=#A8DADC;gradientColor=none;" parent="43" vertex="1">
                    <mxGeometry x="15" y="50" width="90" height="40" as="geometry"/>
                </mxCell>
                <mxCell id="31" value="controller" style="text;html=1;align=center;verticalAlign=middle;resizable=0;points=[];autosize=1;strokeColor=none;fillColor=none;fontSize=16;fontColor=#000000;rounded=0;" parent="43" vertex="1">
                    <mxGeometry x="10" y="10" width="90" height="30" as="geometry"/>
                </mxCell>
                <mxCell id="32" value="td" style="rounded=0;whiteSpace=wrap;html=1;strokeColor=#457B9D;fontSize=16;fontColor=#000000;fillColor=#A8DADC;gradientColor=none;" parent="43" vertex="1">
                    <mxGeometry x="15" y="100" width="90" height="40" as="geometry"/>
                </mxCell>
                <mxCell id="33" value="...." style="rounded=0;whiteSpace=wrap;html=1;strokeColor=#457B9D;fontSize=16;fontColor=#000000;fillColor=#A8DADC;gradientColor=none;" parent="43" vertex="1">
                    <mxGeometry x="15" y="150" width="90" height="40" as="geometry"/>
                </mxCell>
                <mxCell id="44" value="" style="group;rounded=0;" parent="1" vertex="1" connectable="0">
                    <mxGeometry x="900" y="120" width="140" height="460" as="geometry"/>
                </mxCell>
                <mxCell id="18" value="" style="rounded=0;whiteSpace=wrap;html=1;fontSize=13;fillColor=#A8DADC;strokeColor=#457B9D;fontColor=#1D3557;" parent="44" vertex="1">
                    <mxGeometry width="140" height="460" as="geometry"/>
                </mxCell>
                <mxCell id="19" value="&lt;font style=&quot;font-size: 16px;&quot;&gt;robot application&lt;/font&gt;" style="text;html=1;align=center;verticalAlign=middle;resizable=0;points=[];autosize=1;strokeColor=none;fillColor=none;fontSize=13;fontColor=#1D3557;rounded=0;" parent="44" vertex="1">
                    <mxGeometry y="25" width="140" height="30" as="geometry"/>
                </mxCell>
                <mxCell id="22" value="&lt;font color=&quot;#000000&quot; style=&quot;font-size: 15px;&quot;&gt;Chassis&lt;/font&gt;" style="rounded=0;whiteSpace=wrap;html=1;fillColor=#cdeb8b;strokeColor=#36393d;" parent="44" vertex="1">
                    <mxGeometry x="20" y="85" width="100" height="50" as="geometry"/>
                </mxCell>
                <mxCell id="23" value="&lt;font color=&quot;#000000&quot; style=&quot;font-size: 15px;&quot;&gt;upper&lt;/font&gt;" style="rounded=0;whiteSpace=wrap;html=1;fillColor=#cdeb8b;strokeColor=#36393d;" parent="44" vertex="1">
                    <mxGeometry x="20" y="145" width="100" height="50" as="geometry"/>
                </mxCell>
                <mxCell id="24" value="&lt;font color=&quot;#000000&quot; style=&quot;font-size: 15px;&quot;&gt;claw&lt;/font&gt;" style="rounded=0;whiteSpace=wrap;html=1;fillColor=#cdeb8b;strokeColor=#36393d;" parent="44" vertex="1">
                    <mxGeometry x="20" y="205" width="100" height="50" as="geometry"/>
                </mxCell>
                <mxCell id="25" value="&lt;font color=&quot;#000000&quot; style=&quot;font-size: 15px;&quot;&gt;gimbal&lt;/font&gt;" style="rounded=0;whiteSpace=wrap;html=1;fillColor=#cdeb8b;strokeColor=#36393d;" parent="44" vertex="1">
                    <mxGeometry x="20" y="265" width="100" height="50" as="geometry"/>
                </mxCell>
                <mxCell id="26" value="&lt;font color=&quot;#000000&quot; style=&quot;font-size: 15px;&quot;&gt;clamp&lt;/font&gt;" style="rounded=0;whiteSpace=wrap;html=1;fillColor=#cdeb8b;strokeColor=#36393d;" parent="44" vertex="1">
                    <mxGeometry x="20" y="335" width="100" height="50" as="geometry"/>
                </mxCell>
                <mxCell id="45" value="" style="group;rounded=0;" parent="1" vertex="1" connectable="0">
                    <mxGeometry x="490" y="400" width="120" height="195" as="geometry"/>
                </mxCell>
                <mxCell id="28" value="" style="rounded=0;whiteSpace=wrap;html=1;strokeColor=#457B9D;fontSize=16;fontColor=#000000;fillColor=#A8DADC;gradientColor=none;" parent="45" vertex="1">
                    <mxGeometry width="120" height="195" as="geometry"/>
                </mxCell>
                <mxCell id="30" value="device" style="text;html=1;align=center;verticalAlign=middle;resizable=0;points=[];autosize=1;strokeColor=none;fillColor=none;fontSize=16;fontColor=#000000;rounded=0;" parent="45" vertex="1">
                    <mxGeometry x="25" y="10" width="70" height="30" as="geometry"/>
                </mxCell>
                <mxCell id="34" value="motor" style="rounded=0;whiteSpace=wrap;html=1;strokeColor=#BD7000;fontSize=16;fillColor=#f0a30a;fontColor=#000000;" parent="45" vertex="1">
                    <mxGeometry x="15" y="40" width="90" height="40" as="geometry"/>
                </mxCell>
                <mxCell id="36" value="remote control" style="rounded=0;whiteSpace=wrap;html=1;strokeColor=#BD7000;fontSize=16;fillColor=#f0a30a;fontColor=#000000;" parent="45" vertex="1">
                    <mxGeometry x="15" y="110" width="90" height="40" as="geometry"/>
                </mxCell>
                <mxCell id="48" value="" style="group;rounded=0;" parent="1" vertex="1" connectable="0">
                    <mxGeometry x="270" y="210" width="120" height="250" as="geometry"/>
                </mxCell>
                <mxCell id="37" value="" style="rounded=0;whiteSpace=wrap;html=1;strokeColor=#23445d;fontSize=16;fillColor=#bac8d3;" parent="48" vertex="1">
                    <mxGeometry width="120" height="250" as="geometry"/>
                </mxCell>
                <mxCell id="38" value="&lt;font color=&quot;#000000&quot;&gt;uart&lt;/font&gt;" style="rounded=0;whiteSpace=wrap;html=1;strokeColor=#36393d;fontSize=16;fillColor=#ffcc99;" parent="48" vertex="1">
                    <mxGeometry x="15" y="170" width="90" height="35" as="geometry"/>
                </mxCell>
                <mxCell id="39" value="&lt;font color=&quot;#000000&quot;&gt;can&lt;/font&gt;" style="rounded=0;whiteSpace=wrap;html=1;strokeColor=#36393d;fontSize=16;fillColor=#ffcc99;" parent="48" vertex="1">
                    <mxGeometry x="15" y="115" width="90" height="35" as="geometry"/>
                </mxCell>
                <mxCell id="40" value="&lt;font color=&quot;#000000&quot;&gt;dwt&lt;/font&gt;" style="rounded=0;whiteSpace=wrap;html=1;strokeColor=#36393d;fontSize=16;fillColor=#ffcc99;" parent="48" vertex="1">
                    <mxGeometry x="15" y="60" width="90" height="35" as="geometry"/>
                </mxCell>
                <mxCell id="41" value="hardware" style="text;html=1;align=center;verticalAlign=middle;resizable=0;points=[];autosize=1;strokeColor=none;fillColor=none;fontSize=16;fontColor=#000000;rounded=0;" parent="48" vertex="1">
                    <mxGeometry x="15" y="15" width="90" height="30" as="geometry"/>
                </mxCell>
                <mxCell id="54" value="control func" style="ellipse;whiteSpace=wrap;html=1;aspect=fixed;strokeColor=#2D7600;fontSize=16;fontColor=#ffffff;fillColor=#60a917;rounded=0;" parent="1" vertex="1">
                    <mxGeometry x="730" y="320" width="80" height="80" as="geometry"/>
                </mxCell>
                <mxCell id="63" value="" style="endArrow=classic;html=1;rounded=1;strokeColor=#000000;exitX=1;exitY=0.5;exitDx=0;exitDy=0;entryX=0;entryY=0.5;entryDx=0;entryDy=0;" edge="1" parent="1" source="40" target="29">
                    <mxGeometry width="50" height="50" relative="1" as="geometry">
                        <mxPoint x="610" y="370" as="sourcePoint"/>
                        <mxPoint x="660" y="320" as="targetPoint"/>
                        <Array as="points">
                            <mxPoint x="420" y="288"/>
                            <mxPoint x="420" y="200"/>
                        </Array>
                    </mxGeometry>
                </mxCell>
                <mxCell id="64" value="" style="endArrow=classic;html=1;rounded=1;strokeColor=#000000;exitX=1;exitY=0.5;exitDx=0;exitDy=0;entryX=0;entryY=0.5;entryDx=0;entryDy=0;" edge="1" parent="1" source="39" target="34">
                    <mxGeometry width="50" height="50" relative="1" as="geometry">
                        <mxPoint x="385" y="339.5" as="sourcePoint"/>
                        <mxPoint x="515" y="252" as="targetPoint"/>
                        <Array as="points">
                            <mxPoint x="430" y="343"/>
                            <mxPoint x="430" y="460"/>
                        </Array>
                    </mxGeometry>
                </mxCell>
                <mxCell id="65" value="" style="endArrow=classic;html=1;rounded=1;strokeColor=#000000;exitX=1;exitY=0.5;exitDx=0;exitDy=0;" edge="1" parent="1" source="38" target="36">
                    <mxGeometry width="50" height="50" relative="1" as="geometry">
                        <mxPoint x="380" y="400" as="sourcePoint"/>
                        <mxPoint x="510" y="517.5" as="targetPoint"/>
                        <Array as="points">
                            <mxPoint x="420" y="398"/>
                            <mxPoint x="420" y="530"/>
                        </Array>
                    </mxGeometry>
                </mxCell>
                <mxCell id="66" value="" style="endArrow=classic;html=1;rounded=1;strokeColor=#000000;exitX=1.017;exitY=0.571;exitDx=0;exitDy=0;exitPerimeter=0;entryX=0.5;entryY=0;entryDx=0;entryDy=0;" edge="1" parent="1" source="27" target="54">
                    <mxGeometry width="50" height="50" relative="1" as="geometry">
                        <mxPoint x="580" y="450" as="sourcePoint"/>
                        <mxPoint x="630" y="400" as="targetPoint"/>
                        <Array as="points">
                            <mxPoint x="770" y="250"/>
                        </Array>
                    </mxGeometry>
                </mxCell>
                <mxCell id="67" value="" style="endArrow=classic;html=1;rounded=1;strokeColor=#000000;exitX=1;exitY=0.538;exitDx=0;exitDy=0;exitPerimeter=0;entryX=0.5;entryY=1;entryDx=0;entryDy=0;" edge="1" parent="1" source="28" target="54">
                    <mxGeometry width="50" height="50" relative="1" as="geometry">
                        <mxPoint x="580" y="450" as="sourcePoint"/>
                        <mxPoint x="630" y="400" as="targetPoint"/>
                        <Array as="points">
                            <mxPoint x="770" y="505"/>
                        </Array>
                    </mxGeometry>
                </mxCell>
                <mxCell id="68" value="" style="endArrow=classic;html=1;rounded=1;strokeColor=#000000;exitX=1;exitY=0.5;exitDx=0;exitDy=0;entryX=0;entryY=0.5;entryDx=0;entryDy=0;" edge="1" parent="1" source="54" target="22">
                    <mxGeometry width="50" height="50" relative="1" as="geometry">
                        <mxPoint x="820" y="330" as="sourcePoint"/>
                        <mxPoint x="870" y="280" as="targetPoint"/>
                        <Array as="points">
                            <mxPoint x="840" y="360"/>
                            <mxPoint x="840" y="230"/>
                        </Array>
                    </mxGeometry>
                </mxCell>
                <mxCell id="69" value="" style="endArrow=classic;html=1;rounded=1;strokeColor=#000000;entryX=0;entryY=0.5;entryDx=0;entryDy=0;" edge="1" parent="1">
                    <mxGeometry width="50" height="50" relative="1" as="geometry">
                        <mxPoint x="810" y="360" as="sourcePoint"/>
                        <mxPoint x="920" y="290" as="targetPoint"/>
                        <Array as="points">
                            <mxPoint x="840" y="360"/>
                            <mxPoint x="840" y="290"/>
                        </Array>
                    </mxGeometry>
                </mxCell>
                <mxCell id="70" value="" style="endArrow=classic;html=1;rounded=1;strokeColor=#000000;exitX=1;exitY=0.5;exitDx=0;exitDy=0;entryX=0;entryY=0.5;entryDx=0;entryDy=0;" edge="1" parent="1" target="24">
                    <mxGeometry width="50" height="50" relative="1" as="geometry">
                        <mxPoint x="810" y="360" as="sourcePoint"/>
                        <mxPoint x="870" y="380" as="targetPoint"/>
                        <Array as="points">
                            <mxPoint x="840" y="360"/>
                            <mxPoint x="840" y="350"/>
                        </Array>
                    </mxGeometry>
                </mxCell>
                <mxCell id="71" value="" style="endArrow=classic;html=1;rounded=1;strokeColor=#000000;exitX=1;exitY=0.5;exitDx=0;exitDy=0;entryX=0;entryY=0.5;entryDx=0;entryDy=0;" edge="1" parent="1" source="54">
                    <mxGeometry width="50" height="50" relative="1" as="geometry">
                        <mxPoint x="810" y="540" as="sourcePoint"/>
                        <mxPoint x="920" y="410" as="targetPoint"/>
                        <Array as="points">
                            <mxPoint x="840" y="360"/>
                            <mxPoint x="840" y="410"/>
                        </Array>
                    </mxGeometry>
                </mxCell>
                <mxCell id="72" value="" style="endArrow=classic;html=1;rounded=1;strokeColor=#000000;exitX=1;exitY=0.5;exitDx=0;exitDy=0;entryX=0;entryY=0.5;entryDx=0;entryDy=0;" edge="1" parent="1" source="54">
                    <mxGeometry width="50" height="50" relative="1" as="geometry">
                        <mxPoint x="810" y="430" as="sourcePoint"/>
                        <mxPoint x="920" y="480" as="targetPoint"/>
                        <Array as="points">
                            <mxPoint x="840" y="360"/>
                            <mxPoint x="840" y="480"/>
                        </Array>
                    </mxGeometry>
                </mxCell>
            </root>
        </mxGraphModel>
    </diagram>
</mxfile>